<?xml version="1.0" encoding="UTF-8"?>
<svg version="1.1" xmlns="http://www.w3.org/2000/svg" width="1000" height="1000">
<path d="M0 0 C1.87824463 -0.01052147 1.87824463 -0.01052147 3.79443359 -0.02125549 C7.81351653 -0.03866658 11.83244995 -0.04568939 15.8515625 -0.046875 C16.53603706 -0.04731686 17.22051163 -0.04775871 17.92572784 -0.04821396 C38.26281397 -0.05510132 58.31153058 0.23128349 78.4765625 3.203125 C79.71712402 3.37473145 80.95768555 3.54633789 82.23583984 3.72314453 C143.20912845 12.24645621 202.60191161 32.53775495 255.4765625 64.203125 C256.38229004 64.74324219 257.28801758 65.28335938 258.22119141 65.83984375 C284.30943756 81.47700571 308.63094043 99.58139598 331.1171875 120.0625 C332.61442416 121.42092002 334.12360658 122.7663792 335.6484375 124.09375 C341.7236175 129.41476972 347.44576749 135.06537913 353.1640625 140.765625 C353.97222412 141.56919434 354.78038574 142.37276367 355.61303711 143.20068359 C360.44068448 148.04073626 365.03452396 153.00873377 369.4765625 158.203125 C370.42594453 159.28615558 371.37641294 160.36823511 372.328125 161.44921875 C380.1291222 170.39247004 387.39446536 179.68327335 394.4765625 189.203125 C395.01958008 189.93047852 395.56259766 190.65783203 396.12207031 191.40722656 C409.33186207 209.16941238 420.72360755 227.87023225 431.4765625 247.203125 C431.87439941 247.91082031 432.27223633 248.61851562 432.68212891 249.34765625 C460.28453014 298.64193154 476.76164439 355.1269204 483.7265625 411.015625 C483.85118866 412.01456787 483.85118866 412.01456787 483.97833252 413.03369141 C485.60934054 426.26539256 486.62951987 439.38708664 486.6796875 452.7265625 C486.68670181 453.9787709 486.69371613 455.23097931 486.70094299 456.52113342 C486.71835341 460.54017058 486.72537678 464.55905823 486.7265625 468.578125 C486.72700436 469.26245228 486.72744621 469.94677956 486.72790146 470.65184402 C486.73478758 490.97979018 486.50282601 511.05242456 483.4765625 531.203125 C483.29963867 532.42725098 483.12271484 533.65137695 482.94042969 534.91259766 C476.27351619 580.20500565 463.82842618 623.86252534 444.71679688 665.49658203 C443.61502067 667.90097001 442.53426848 670.31329689 441.4609375 672.73046875 C435.9438887 684.99313472 429.25738949 696.60358265 422.4765625 708.203125 C422.0031543 709.01458984 421.52974609 709.82605469 421.04199219 710.66210938 C405.61938174 736.92613669 387.11278637 761.34158901 366.6171875 783.84375 C365.25876748 785.34098666 363.9133083 786.85016908 362.5859375 788.375 C357.26491778 794.45018 351.61430837 800.17232999 345.9140625 805.890625 C345.11049316 806.69878662 344.30692383 807.50694824 343.47900391 808.33959961 C338.63895124 813.16724698 333.67095373 817.76108646 328.4765625 822.203125 C327.39353192 823.15250703 326.31145239 824.10297544 325.23046875 825.0546875 C316.28721746 832.8556847 306.99641415 840.12102786 297.4765625 847.203125 C296.74920898 847.74614258 296.02185547 848.28916016 295.27246094 848.84863281 C277.51597112 862.05418843 258.82368343 873.486483 239.4765625 884.203125 C238.3019043 884.85643799 238.3019043 884.85643799 237.10351562 885.52294922 C188.24695438 912.51443516 133.57181521 928.5818178 78.4765625 936.203125 C77.35588379 936.36828613 76.23520508 936.53344727 75.08056641 936.70361328 C36.57759543 942.20728999 -6.07546047 941.97730194 -44.5234375 936.203125 C-45.74756348 936.02620117 -46.97168945 935.84927734 -48.23291016 935.66699219 C-93.52531815 929.00007869 -137.18283784 916.55498868 -178.81689453 897.44335938 C-181.22128251 896.34158317 -183.63360939 895.26083098 -186.05078125 894.1875 C-226.66133719 875.91966044 -264.32210194 849.25712809 -297.1640625 819.34375 C-298.66129916 817.98532998 -300.17048158 816.6398708 -301.6953125 815.3125 C-307.7704925 809.99148028 -313.49264249 804.34087087 -319.2109375 798.640625 C-320.01909912 797.83705566 -320.82726074 797.03348633 -321.65991211 796.20556641 C-326.48755948 791.36551374 -331.08139896 786.39751623 -335.5234375 781.203125 C-336.47281953 780.12009442 -337.42328794 779.03801489 -338.375 777.95703125 C-346.1759972 769.01377996 -353.44134036 759.72297665 -360.5234375 750.203125 C-361.06645508 749.47577148 -361.60947266 748.74841797 -362.16894531 747.99902344 C-375.37873707 730.23683762 -386.77048255 711.53601775 -397.5234375 692.203125 C-397.92127441 691.49542969 -398.31911133 690.78773438 -398.72900391 690.05859375 C-426.33140514 640.76431846 -442.80851939 584.2793296 -449.7734375 528.390625 C-449.85652161 527.72466309 -449.93960571 527.05870117 -450.02520752 526.37255859 C-451.65621554 513.14085744 -452.67639487 500.01916336 -452.7265625 486.6796875 C-452.73708397 484.80137489 -452.73708397 484.80137489 -452.74781799 482.88511658 C-452.76522841 478.86607942 -452.77225178 474.84719177 -452.7734375 470.828125 C-452.77387936 470.14379772 -452.77432121 469.45947044 -452.77477646 468.75440598 C-452.78166258 448.42645982 -452.54970101 428.35382544 -449.5234375 408.203125 C-449.34651367 406.97899902 -449.16958984 405.75487305 -448.98730469 404.49365234 C-442.32010173 359.19927782 -429.80126287 315.61497556 -410.77978516 273.95800781 C-409.67371442 271.53264788 -408.58585822 269.10023847 -407.50390625 266.6640625 C-389.22687408 226.05905115 -362.57706606 188.40404936 -332.6640625 155.5625 C-331.30564248 154.06526334 -329.9601833 152.55608092 -328.6328125 151.03125 C-323.31179278 144.95607 -317.66118337 139.23392001 -311.9609375 133.515625 C-311.15736816 132.70746338 -310.35379883 131.89930176 -309.52587891 131.06665039 C-304.6851905 126.23836891 -299.70841929 121.65660432 -294.5234375 117.203125 C-293.40158301 116.20543974 -292.28172543 115.20550365 -291.1640625 114.203125 C-281.07664268 105.23900274 -270.42466298 97.14778943 -259.5234375 89.203125 C-258.42878174 88.40044189 -258.42878174 88.40044189 -257.31201172 87.58154297 C-240.85020469 75.54926416 -223.47696747 64.98610166 -205.54345703 55.30126953 C-203.69190775 54.29471059 -201.85426353 53.2672631 -200.01953125 52.23046875 C-151.77427683 25.50073166 -96.25190112 9.750086 -41.7109375 2.953125 C-41.04497559 2.87004089 -40.37901367 2.78695679 -39.69287109 2.70135498 C-26.46116989 1.07034695 -13.33947592 0.05016785 0 0 Z " fill="#1A202C" transform="translate(481.5234375,29.796875)"/>
<path d="M0 0 C1.87824463 -0.01052147 1.87824463 -0.01052147 3.79443359 -0.02125549 C7.81351653 -0.03866658 11.83244995 -0.04568939 15.8515625 -0.046875 C16.53603706 -0.04731686 17.22051163 -0.04775871 17.92572784 -0.04821396 C38.26281397 -0.05510132 58.31153058 0.23128349 78.4765625 3.203125 C79.71712402 3.37473145 80.95768555 3.54633789 82.23583984 3.72314453 C143.20912845 12.24645621 202.60191161 32.53775495 255.4765625 64.203125 C256.38229004 64.74324219 257.28801758 65.28335938 258.22119141 65.83984375 C284.30943756 81.47700571 308.63094043 99.58139598 331.1171875 120.0625 C332.61442416 121.42092002 334.12360658 122.7663792 335.6484375 124.09375 C341.7236175 129.41476972 347.44576749 135.06537913 353.1640625 140.765625 C353.97222412 141.56919434 354.78038574 142.37276367 355.61303711 143.20068359 C360.44068448 148.04073626 365.03452396 153.00873377 369.4765625 158.203125 C370.42594453 159.28615558 371.37641294 160.36823511 372.328125 161.44921875 C380.1291222 170.39247004 387.39446536 179.68327335 394.4765625 189.203125 C395.01958008 189.93047852 395.56259766 190.65783203 396.12207031 191.40722656 C409.33186207 209.16941238 420.72360755 227.87023225 431.4765625 247.203125 C431.87439941 247.91082031 432.27223633 248.61851562 432.68212891 249.34765625 C460.28453014 298.64193154 476.76164439 355.1269204 483.7265625 411.015625 C483.85118866 412.01456787 483.85118866 412.01456787 483.97833252 413.03369141 C485.60934054 426.26539256 486.62951987 439.38708664 486.6796875 452.7265625 C486.68670181 453.9787709 486.69371613 455.23097931 486.70094299 456.52113342 C486.71835341 460.54017058 486.72537678 464.55905823 486.7265625 468.578125 C486.72700436 469.26245228 486.72744621 469.94677956 486.72790146 470.65184402 C486.73478758 490.97979018 486.50282601 511.05242456 483.4765625 531.203125 C483.29963867 532.42725098 483.12271484 533.65137695 482.94042969 534.91259766 C476.27351619 580.20500565 463.82842618 623.86252534 444.71679688 665.49658203 C443.61502067 667.90097001 442.53426848 670.31329689 441.4609375 672.73046875 C435.9438887 684.99313472 429.25738949 696.60358265 422.4765625 708.203125 C422.0031543 709.01458984 421.52974609 709.82605469 421.04199219 710.66210938 C405.61938174 736.92613669 387.11278637 761.34158901 366.6171875 783.84375 C365.25876748 785.34098666 363.9133083 786.85016908 362.5859375 788.375 C357.26491778 794.45018 351.61430837 800.17232999 345.9140625 805.890625 C345.11049316 806.69878662 344.30692383 807.50694824 343.47900391 808.33959961 C338.63895124 813.16724698 333.67095373 817.76108646 328.4765625 822.203125 C327.39353192 823.15250703 326.31145239 824.10297544 325.23046875 825.0546875 C316.28721746 832.8556847 306.99641415 840.12102786 297.4765625 847.203125 C296.74920898 847.74614258 296.02185547 848.28916016 295.27246094 848.84863281 C277.51597112 862.05418843 258.82368343 873.486483 239.4765625 884.203125 C238.3019043 884.85643799 238.3019043 884.85643799 237.10351562 885.52294922 C188.24695438 912.51443516 133.57181521 928.5818178 78.4765625 936.203125 C77.35588379 936.36828613 76.23520508 936.53344727 75.08056641 936.70361328 C36.57759543 942.20728999 -6.07546047 941.97730194 -44.5234375 936.203125 C-45.74756348 936.02620117 -46.97168945 935.84927734 -48.23291016 935.66699219 C-93.52531815 929.00007869 -137.18283784 916.55498868 -178.81689453 897.44335938 C-181.22128251 896.34158317 -183.63360939 895.26083098 -186.05078125 894.1875 C-226.66133719 875.91966044 -264.32210194 849.25712809 -297.1640625 819.34375 C-298.66129916 817.98532998 -300.17048158 816.6398708 -301.6953125 815.3125 C-307.7704925 809.99148028 -313.49264249 804.34087087 -319.2109375 798.640625 C-320.01909912 797.83705566 -320.82726074 797.03348633 -321.65991211 796.20556641 C-326.48755948 791.36551374 -331.08139896 786.39751623 -335.5234375 781.203125 C-336.47281953 780.12009442 -337.42328794 779.03801489 -338.375 777.95703125 C-346.1759972 769.01377996 -353.44134036 759.72297665 -360.5234375 750.203125 C-361.06645508 749.47577148 -361.60947266 748.74841797 -362.16894531 747.99902344 C-375.37873707 730.23683762 -386.77048255 711.53601775 -397.5234375 692.203125 C-397.92127441 691.49542969 -398.31911133 690.78773438 -398.72900391 690.05859375 C-426.33140514 640.76431846 -442.80851939 584.2793296 -449.7734375 528.390625 C-449.85652161 527.72466309 -449.93960571 527.05870117 -450.02520752 526.37255859 C-451.65621554 513.14085744 -452.67639487 500.01916336 -452.7265625 486.6796875 C-452.73708397 484.80137489 -452.73708397 484.80137489 -452.74781799 482.88511658 C-452.76522841 478.86607942 -452.77225178 474.84719177 -452.7734375 470.828125 C-452.77387936 470.14379772 -452.77432121 469.45947044 -452.77477646 468.75440598 C-452.78166258 448.42645982 -452.54970101 428.35382544 -449.5234375 408.203125 C-449.34651367 406.97899902 -449.16958984 405.75487305 -448.98730469 404.49365234 C-442.32010173 359.19927782 -429.80126287 315.61497556 -410.77978516 273.95800781 C-409.67371442 271.53264788 -408.58585822 269.10023847 -407.50390625 266.6640625 C-389.22687408 226.05905115 -362.57706606 188.40404936 -332.6640625 155.5625 C-331.30564248 154.06526334 -329.9601833 152.55608092 -328.6328125 151.03125 C-323.31179278 144.95607 -317.66118337 139.23392001 -311.9609375 133.515625 C-311.15736816 132.70746338 -310.35379883 131.89930176 -309.52587891 131.06665039 C-304.6851905 126.23836891 -299.70841929 121.65660432 -294.5234375 117.203125 C-293.40158301 116.20543974 -292.28172543 115.20550365 -291.1640625 114.203125 C-281.07664268 105.23900274 -270.42466298 97.14778943 -259.5234375 89.203125 C-258.42878174 88.40044189 -258.42878174 88.40044189 -257.31201172 87.58154297 C-240.85020469 75.54926416 -223.47696747 64.98610166 -205.54345703 55.30126953 C-203.69190775 54.29471059 -201.85426353 53.2672631 -200.01953125 52.23046875 C-151.77427683 25.50073166 -96.25190112 9.750086 -41.7109375 2.953125 C-41.04497559 2.87004089 -40.37901367 2.78695679 -39.69287109 2.70135498 C-26.46116989 1.07034695 -13.33947592 0.05016785 0 0 Z M-32.5234375 40.203125 C-33.6160791 40.32671387 -34.7087207 40.45030273 -35.83447266 40.57763672 C-82.7927647 45.95006647 -127.97705648 59.74349843 -170.5234375 80.203125 C-171.37421875 80.60466797 -172.225 81.00621094 -173.1015625 81.41992188 C-206.31707656 97.11373001 -236.82543986 118.16188548 -264.5234375 142.203125 C-265.235 142.81414062 -265.9465625 143.42515625 -266.6796875 144.0546875 C-268.64395597 145.75329671 -270.58700282 147.47285066 -272.5234375 149.203125 C-273.36648438 149.95335937 -274.20953125 150.70359375 -275.078125 151.4765625 C-281.32963376 157.11816797 -287.3708413 162.94690907 -293.3359375 168.890625 C-294.39349243 169.9412915 -294.39349243 169.9412915 -295.47241211 171.01318359 C-300.02633552 175.58053091 -304.32679249 180.30714727 -308.5234375 185.203125 C-309.3690625 186.16734375 -310.2146875 187.1315625 -311.0859375 188.125 C-335.7145118 216.70046121 -355.5483263 248.61590787 -372.5234375 282.203125 C-372.89710449 282.93966309 -373.27077148 283.67620117 -373.65576172 284.43505859 C-392.11641076 321.1707781 -404.63122595 362.20854188 -410.0703125 402.97021484 C-410.53780351 406.30562215 -411.09009036 409.62008959 -411.6484375 412.94140625 C-414.51218727 431.27601624 -414.92804085 449.5369413 -414.95689392 468.07078552 C-414.96086152 470.04040535 -414.97006472 472.01001241 -414.97937012 473.97961426 C-415.03477133 491.91761205 -413.93622632 509.42852521 -411.5234375 527.203125 C-411.41657623 528.00574768 -411.30971497 528.80837036 -411.19961548 529.63531494 C-410.6051476 534.04499958 -409.934173 538.43786189 -409.2109375 542.828125 C-408.89564087 544.75350098 -408.89564087 544.75350098 -408.57397461 546.71777344 C-405.40890601 565.61976793 -400.73211818 584.07932855 -394.5234375 602.203125 C-394.17297363 603.23775879 -393.82250977 604.27239258 -393.46142578 605.33837891 C-387.66231269 622.36237417 -381.13201565 638.90665802 -373.5234375 655.203125 C-373.12721191 656.05745117 -372.73098633 656.91177734 -372.32275391 657.79199219 C-355.38178875 693.96614612 -332.16402021 728.08209019 -305.078125 757.40234375 C-303.11526819 759.5542831 -301.20690388 761.72991308 -299.30859375 763.9375 C-295.10661604 768.75377871 -290.61468893 773.25845619 -286.0859375 777.765625 C-285.27833984 778.57708984 -284.47074219 779.38855469 -283.63867188 780.22460938 C-278.76243697 785.09298572 -273.75634409 789.72286328 -268.5234375 794.203125 C-267.47514819 795.12860881 -266.42819558 796.05560969 -265.3828125 796.984375 C-204.54098995 850.46267681 -126.77912477 886.30976718 -46.5234375 897.203125 C-44.49214835 897.49191226 -42.46089841 897.78097548 -40.4296875 898.0703125 C-38.4403714 898.34568742 -36.45079608 898.61919774 -34.4609375 898.890625 C-33.5939624 899.01026611 -32.7269873 899.12990723 -31.83374023 899.25317383 C-16.66555947 901.22071416 -1.48885084 901.38957518 13.7824707 901.38842773 C17.00941354 901.390605 20.23600824 901.40880622 23.46289062 901.42773438 C43.33787229 901.48298135 62.89636302 899.86443759 82.5390625 896.890625 C83.25615387 896.78396515 83.97324524 896.6773053 84.71206665 896.56741333 C97.11917009 894.71255008 109.32013648 892.32198251 121.4765625 889.203125 C122.17185059 889.0292627 122.86713867 888.85540039 123.58349609 888.67626953 C150.79412547 881.86197803 177.06236557 872.01165469 202.4765625 860.203125 C203.33523926 859.80544922 204.19391602 859.40777344 205.07861328 858.99804688 C233.87744111 845.50876037 260.5566516 827.86519394 285.4765625 808.203125 C286.49363281 807.40132812 287.51070312 806.59953125 288.55859375 805.7734375 C294.4116424 801.06755289 299.96445753 796.09272208 305.45703125 790.9765625 C307.67482161 788.91571771 309.94675188 786.93088272 312.2421875 784.95703125 C317.04940613 780.76702872 321.54228435 776.28393601 326.0390625 771.765625 C326.85052734 770.95802734 327.66199219 770.15042969 328.49804688 769.31835938 C333.36590871 764.44263981 338.00404866 759.44227423 342.4765625 754.203125 C343.3221875 753.23890625 344.1678125 752.2746875 345.0390625 751.28125 C364.36035429 728.86359734 381.29804857 704.17126933 395.4765625 678.203125 C396.19489258 676.89190674 396.19489258 676.89190674 396.92773438 675.55419922 C419.64696516 633.78656266 435.86315281 588.1858769 443.4765625 541.203125 C443.647323 540.16983063 443.647323 540.16983063 443.8215332 539.11566162 C447.54275209 516.45741744 448.94065869 494.10174967 448.9140625 471.140625 C448.91419342 469.9740033 448.91432434 468.80738159 448.91445923 467.60540771 C448.87247451 446.8106905 447.57338113 426.17483005 444.6640625 405.578125 C444.49302002 404.36141113 444.32197754 403.14469727 444.14575195 401.89111328 C442.67077718 391.81046472 440.68430091 381.93573839 438.19482422 372.05957031 C437.41631859 368.96354179 436.66779822 365.86090349 435.91796875 362.7578125 C421.42673095 303.82507343 393.39960805 248.52207012 355.4765625 201.203125 C354.68121094 200.19636719 353.88585937 199.18960938 353.06640625 198.15234375 C348.35995363 192.28380407 343.37450358 186.72418788 338.25 181.22265625 C336.17937538 178.9941122 334.18383965 176.71160618 332.19921875 174.40625 C328.17325286 169.78723173 323.88122957 165.46080641 319.5390625 161.140625 C318.39920898 159.9949707 318.39920898 159.9949707 317.23632812 158.82617188 C312.47925938 154.07722793 307.57783292 149.57766494 302.4765625 145.203125 C301.42834687 144.27755773 300.38139471 143.35055686 299.3359375 142.421875 C276.84557869 122.65346331 251.74166326 105.54377608 225.4765625 91.203125 C224.60241699 90.72423828 223.72827148 90.24535156 222.82763672 89.75195312 C176.94657301 64.79525074 127.3448367 48.59356203 75.6640625 41.515625 C74.87659637 41.40685028 74.08913025 41.29807556 73.27780151 41.18600464 C54.84661072 38.66020706 36.69151228 37.99707815 18.1015625 38.015625 C16.98584869 38.01622925 15.87013489 38.0168335 14.72061157 38.01745605 C-1.12670402 38.04079001 -16.77753099 38.26586421 -32.5234375 40.203125 Z " fill="#F46464" transform="translate(481.5234375,29.796875)"/>
<path d="M0 0 C1.15171188 -0.0049926 1.15171188 -0.0049926 2.32669067 -0.01008606 C3.94190884 -0.01512035 5.55713728 -0.01749547 7.17236328 -0.01733398 C9.61899255 -0.01951891 12.06516908 -0.03770753 14.51171875 -0.05664062 C22.17703446 -0.0843816 29.32938623 0.11651943 36.7578125 2.16796875 C38.13475645 2.41239183 39.51525759 2.63752043 40.8984375 2.84375 C50.0776647 4.25229608 58.17620157 6.49675328 66.7578125 10.16796875 C68.34097166 10.75177462 69.92429749 11.33512877 71.5078125 11.91796875 C89.76996977 19.32955855 105.30040669 30.19416377 119.38134766 43.84716797 C120.53994763 44.9589143 121.72958411 46.03818585 122.92578125 47.109375 C142.97536835 65.58806662 154.0445135 93.03915331 159.31445312 119.17236328 C159.75099599 121.13728693 160.30850632 123.07406744 160.8671875 125.0078125 C161.7578125 128.16796875 161.7578125 128.16796875 161.7578125 131.16796875 C162.67820312 131.15636719 163.59859375 131.14476562 164.546875 131.1328125 C187.17181008 130.97153496 187.17181008 130.97153496 194.7578125 133.16796875 C194.7578125 133.82796875 194.7578125 134.48796875 194.7578125 135.16796875 C195.89863281 135.27367187 197.03945313 135.379375 198.21484375 135.48828125 C202.87283229 136.072966 207.05173475 137.43316815 211.4453125 139.04296875 C212.54456055 139.42775391 212.54456055 139.42775391 213.66601562 139.8203125 C217.66405415 141.25513606 221.14961726 142.89351711 224.7578125 145.16796875 C226.74233021 145.87939963 228.73983362 146.55788211 230.7578125 147.16796875 C230.7578125 147.82796875 230.7578125 148.48796875 230.7578125 149.16796875 C231.4590625 149.41804687 232.1603125 149.668125 232.8828125 149.92578125 C255.33672152 159.62733433 275.37786648 184.14369021 284.7578125 206.16796875 C285.14324219 207.07160156 285.52867187 207.97523438 285.92578125 208.90625 C288.53141663 215.34417373 290.63533724 221.86230565 292.5078125 228.54296875 C292.71849365 229.29175293 292.9291748 230.04053711 293.14624023 230.81201172 C301.4170235 261.23195934 294.9851748 296.05822654 279.5703125 323.10546875 C279.18939453 323.77658691 278.80847656 324.44770508 278.41601562 325.13916016 C274.44364554 331.9648546 269.80347115 338.10678134 264.7578125 344.16796875 C264.01660156 345.06257813 263.27539062 345.9571875 262.51171875 346.87890625 C255.21028969 355.33867255 246.76644976 362.01434305 237.4453125 368.10546875 C236.87079346 368.48324463 236.29627441 368.86102051 235.7043457 369.25024414 C232.17228439 371.4935458 228.77388487 373.00750003 224.7578125 374.16796875 C224.7578125 374.82796875 224.7578125 375.48796875 224.7578125 376.16796875 C213.55040094 380.7858374 202.6053003 384.56127435 190.7578125 387.16796875 C189.81557831 387.41852776 189.81557831 387.41852776 188.85430908 387.67414856 C182.38583301 389.31718279 176.1466274 389.49037677 169.49609375 389.50390625 C168.34666794 389.51056305 167.19724213 389.51721985 166.01298523 389.52407837 C163.59680776 389.53415454 161.18060275 389.53889696 158.7644043 389.53857422 C155.0709899 389.54296794 151.37875197 389.57939908 147.68554688 389.6171875 C145.33073323 389.62305259 142.97591395 389.62702404 140.62109375 389.62890625 C138.9709301 389.6504628 138.9709301 389.6504628 137.28742981 389.67245483 C129.99798536 389.62897485 126.42137873 388.72482916 121.1484375 383.60546875 C117.06103349 378.45421986 115.48856197 375.5534933 115.6328125 368.91796875 C115.65085937 367.8403125 115.66890625 366.76265625 115.6875 365.65234375 C115.72230469 364.42257812 115.72230469 364.42257812 115.7578125 363.16796875 C116.4178125 363.16796875 117.0778125 363.16796875 117.7578125 363.16796875 C117.7784375 362.46671875 117.7990625 361.76546875 117.8203125 361.04296875 C119.19161559 356.83763926 122.10521997 354.55765661 125.7578125 352.16796875 C128.76052807 351.2309748 131.52277614 351.02461899 134.65893555 350.97851562 C135.6306218 350.9617981 136.60230804 350.94508057 137.60343933 350.92785645 C139.17065483 350.90749329 139.17065483 350.90749329 140.76953125 350.88671875 C141.85232864 350.86830933 142.93512604 350.8498999 144.05073547 350.83093262 C147.51553949 350.77221426 150.98039356 350.71942913 154.4453125 350.66796875 C158.99098056 350.59993791 163.53650634 350.5261606 168.08203125 350.44921875 C169.11672043 350.43564331 170.15140961 350.42206787 171.217453 350.40808105 C177.1308734 350.30796654 182.89045294 349.9187233 188.7578125 349.16796875 C188.7578125 348.50796875 188.7578125 347.84796875 188.7578125 347.16796875 C189.92699219 346.90371094 191.09617187 346.63945313 192.30078125 346.3671875 C196.43051331 345.3308945 200.23525456 343.8186429 204.0703125 341.98046875 C204.71766357 341.67222168 205.36501465 341.36397461 206.03198242 341.04638672 C223.32658451 332.63949624 237.05937521 320.4812045 245.7578125 303.16796875 C246.4178125 303.16796875 247.0778125 303.16796875 247.7578125 303.16796875 C247.92796875 302.57371094 248.098125 301.97945312 248.2734375 301.3671875 C249.62521164 296.74383234 251.09037122 292.22702025 252.8203125 287.73046875 C258.30060822 272.5914143 260.0055363 250.79593579 253.69921875 235.59375 C252.69360846 233.00253011 251.88249499 230.37154081 251.06591797 227.71582031 C248.88930851 220.75272507 246.27066187 214.94353753 241.7578125 209.16796875 C241.17644531 208.38679687 240.59507812 207.605625 239.99609375 206.80078125 C236.83496631 202.6179445 233.60767975 198.74284548 229.7578125 195.16796875 C229.19320313 194.59820312 228.62859375 194.0284375 228.046875 193.44140625 C211.60197973 177.62658359 190.08556689 169.70964973 167.5078125 169.98046875 C165.95320312 169.98143555 165.95320312 169.98143555 164.3671875 169.98242188 C159.05314763 170.01292338 153.99623925 170.29036219 148.7578125 171.16796875 C142.60329697 171.56503427 137.22377706 171.24351413 131.7578125 168.16796875 C124.92291346 161.27920372 123.70315452 154.49816399 123.5078125 145.10546875 C123.26332925 138.02767856 122.9896827 131.7291112 120.46630859 125.06518555 C119.55188674 122.61653902 119.10063066 120.18297742 118.6953125 117.60546875 C117.93157909 113.04873997 116.93759441 108.63428598 115.7578125 104.16796875 C115.0978125 104.16796875 114.4378125 104.16796875 113.7578125 104.16796875 C113.561875 103.5853125 113.3659375 103.00265625 113.1640625 102.40234375 C108.84795022 90.57024285 101.40176442 81.17833096 92.7578125 72.16796875 C91.8915625 71.26046875 91.0253125 70.35296875 90.1328125 69.41796875 C76.96814312 56.94617671 61.04730561 48.53923794 43.7578125 43.16796875 C42.64664062 42.79542969 41.53546875 42.42289062 40.390625 42.0390625 C18.16701652 35.29018413 -6.12175707 38.33901114 -28.00683594 44.6171875 C-30.2421875 45.16796875 -30.2421875 45.16796875 -33.2421875 45.16796875 C-33.2421875 45.82796875 -33.2421875 46.48796875 -33.2421875 47.16796875 C-34.3971875 47.58046875 -35.5521875 47.99296875 -36.7421875 48.41796875 C-59.34817812 56.98444941 -78.7805075 75.30788802 -89.8046875 96.79296875 C-90.88597996 99.33165539 -91.63372221 101.5139011 -92.2421875 104.16796875 C-92.9021875 104.16796875 -93.5621875 104.16796875 -94.2421875 104.16796875 C-94.36722656 104.82925781 -94.49226562 105.49054688 -94.62109375 106.171875 C-95.38154044 109.84019331 -96.27204413 113.47152112 -97.1796875 117.10546875 C-97.34919922 117.79576172 -97.51871094 118.48605469 -97.69335938 119.19726562 C-97.86287109 119.87724609 -98.03238281 120.55722656 -98.20703125 121.2578125 C-98.357771 121.86488037 -98.50851074 122.47194824 -98.66381836 123.09741211 C-99.12967127 124.76516161 -99.6888089 126.4066972 -100.27612305 128.03564453 C-101.25373571 131.20541214 -101.57829295 133.89052461 -101.734375 137.1953125 C-101.83298828 138.87850586 -101.83298828 138.87850586 -101.93359375 140.59570312 C-102.05576513 142.93125606 -102.17037753 145.26721693 -102.27734375 147.60351562 C-102.78785828 155.99810838 -104.11987591 160.56530153 -109.6796875 166.98046875 C-113.83494233 170.52763751 -117.39480295 171.43823472 -122.8046875 171.35546875 C-123.73410156 171.34902344 -124.66351563 171.34257812 -125.62109375 171.3359375 C-128.2421875 171.16796875 -128.2421875 171.16796875 -130.08203125 170.66796875 C-149.68038771 166.13164031 -173.57444416 171.0820707 -190.7421875 181.125 C-196.46082089 184.82314685 -201.57116926 189.00509424 -206.5 193.69921875 C-208.2421875 195.16796875 -208.2421875 195.16796875 -210.2421875 195.16796875 C-210.50644531 195.75449219 -210.77070313 196.34101563 -211.04296875 196.9453125 C-212.28519464 199.24767906 -213.63850298 200.8327149 -215.4296875 202.73046875 C-224.340752 212.84323282 -228.42347023 223.45289917 -232.2421875 236.16796875 C-232.9021875 236.16796875 -233.5621875 236.16796875 -234.2421875 236.16796875 C-236.92941214 266.44723206 -234.3084481 294.70412363 -214.16015625 318.97265625 C-205.19836278 329.27543803 -195.06340383 337.16986747 -182.2421875 342.16796875 C-182.2421875 342.82796875 -182.2421875 343.48796875 -182.2421875 344.16796875 C-180.47875 344.53921875 -180.47875 344.53921875 -178.6796875 344.91796875 C-175.82257897 345.5272373 -173.09584506 346.2170924 -170.32421875 347.14746094 C-157.98118065 351.10142947 -145.65644335 350.70321207 -132.8046875 350.66796875 C-128.34723088 350.65587944 -123.89094766 350.66965608 -119.43359375 350.69921875 C-118.42825089 350.68789917 -117.42290802 350.67657959 -116.38710022 350.66491699 C-110.16623715 350.70940226 -105.4205377 351.57337206 -100.2421875 355.16796875 C-95.34106867 360.3270412 -93.7834001 364.5545789 -93.91796875 371.5625 C-94.58893558 376.95448644 -97.11531052 381.62600347 -101.2421875 385.16796875 C-101.9021875 385.16796875 -102.5621875 385.16796875 -103.2421875 385.16796875 C-103.2421875 385.82796875 -103.2421875 386.48796875 -103.2421875 387.16796875 C-106.50410306 389.34257912 -107.4488429 389.42313214 -111.22583008 389.44262695 C-112.24151566 389.45215897 -113.25720123 389.46169098 -114.30366516 389.47151184 C-115.40357285 389.47060043 -116.50348053 389.46968903 -117.63671875 389.46875 C-118.77566086 389.47303513 -119.91460297 389.47732025 -121.08805847 389.48173523 C-123.50653418 389.4874864 -125.92502719 389.48797303 -128.34350586 389.48364258 C-132.00210213 389.48051372 -135.65986499 389.50382368 -139.31835938 389.52929688 C-151.03345168 389.56131177 -161.92295545 389.44515398 -173.2421875 386.16796875 C-174.80406753 385.8054198 -176.3677047 385.45029111 -177.93359375 385.10546875 C-179.84978516 384.64140625 -179.84978516 384.64140625 -181.8046875 384.16796875 C-182.79178711 383.93980469 -182.79178711 383.93980469 -183.79882812 383.70703125 C-187.77215092 382.73462326 -190.80464359 381.3466128 -194.2421875 379.16796875 C-195.82789691 378.55536559 -197.43257115 377.98889328 -199.0546875 377.48046875 C-199.84488281 377.22910156 -200.63507813 376.97773437 -201.44921875 376.71875 C-202.04089844 376.53699219 -202.63257813 376.35523438 -203.2421875 376.16796875 C-203.2421875 375.50796875 -203.2421875 374.84796875 -203.2421875 374.16796875 C-203.93054688 374.08546875 -204.61890625 374.00296875 -205.328125 373.91796875 C-208.96622728 372.98162071 -211.77235634 371.21778643 -214.8671875 369.16796875 C-215.48037842 368.76642578 -216.09356934 368.36488281 -216.7253418 367.95117188 C-222.55640682 364.06833829 -227.99369023 359.81055526 -233.2421875 355.16796875 C-233.97566406 354.52988281 -234.70914063 353.89179687 -235.46484375 353.234375 C-247.68566616 341.85636793 -256.42500446 327.2571183 -263.2421875 312.16796875 C-263.64824219 311.306875 -264.05429687 310.44578125 -264.47265625 309.55859375 C-265.4498246 307.44701158 -266.35395269 305.31822044 -267.2421875 303.16796875 C-267.57863281 302.42675781 -267.91507813 301.68554688 -268.26171875 300.921875 C-274.94041656 284.88799748 -275.01662403 266.252712 -274.2421875 249.16796875 C-274.2102832 248.45866211 -274.17837891 247.74935547 -274.14550781 247.01855469 C-273.40894576 234.23259289 -269.21532427 222.24935345 -265.2421875 210.16796875 C-264.5821875 210.16796875 -263.9221875 210.16796875 -263.2421875 210.16796875 C-263.15710938 209.33265625 -263.07203125 208.49734375 -262.984375 207.63671875 C-262.10842932 203.54282524 -260.4324514 200.25965561 -258.3671875 196.66796875 C-257.96862549 195.9709082 -257.57006348 195.27384766 -257.15942383 194.55566406 C-245.50585068 174.71692344 -228.71207494 158.5194349 -208.8046875 147.10546875 C-208.14243164 146.72302002 -207.48017578 146.34057129 -206.79785156 145.9465332 C-202.94948681 143.82193548 -199.68790449 142.61460183 -195.2421875 142.16796875 C-195.2421875 141.50796875 -195.2421875 140.84796875 -195.2421875 140.16796875 C-177.09515229 134.31696067 -159.37495642 130.57826012 -140.2421875 131.16796875 C-140.16871094 130.29785156 -140.16871094 130.29785156 -140.09375 129.41015625 C-140.01898438 128.62898437 -139.94421875 127.8478125 -139.8671875 127.04296875 C-139.79757812 126.27726562 -139.72796875 125.5115625 -139.65625 124.72265625 C-139.1705661 121.72607821 -138.21906301 119.04113202 -137.2421875 116.16796875 C-136.67473727 113.88254994 -136.13298159 111.59059695 -135.6171875 109.29296875 C-135.35679687 108.14054687 -135.09640625 106.988125 -134.828125 105.80078125 C-134.63476562 104.93195313 -134.44140625 104.063125 -134.2421875 103.16796875 C-133.5821875 103.16796875 -132.9221875 103.16796875 -132.2421875 103.16796875 C-131.8709375 101.28078125 -131.8709375 101.28078125 -131.4921875 99.35546875 C-124.7027619 69.61131849 -101.49325342 41.59355694 -76.2421875 25.16796875 C-53.3956101 11.11415129 -27.22391931 0.04189695 0 0 Z " fill="#CDCADE" transform="translate(484.2421875,244.83203125)"/>
<path d="M0 0 C6.0601347 2.65130893 10.38773468 6.33327671 15 11 C16.04942841 12.05083154 17.09959796 13.10092329 18.15039062 14.15039062 C29.5 25.5 29.5 25.5 40.84960938 36.84960938 C41.65229248 37.65217163 41.65229248 37.65217163 42.47119141 38.47094727 C43.90259583 39.90258028 45.33316447 41.3350488 46.76367188 42.76757812 C48.31193808 44.31313993 49.87062774 45.84830395 51.4375 47.375 C57.48883195 53.57392541 61.3177517 57.88313777 62.5 66.75 C62.3166541 72.36901269 59.52480612 76.77168319 56 81 C51.23326334 84.9901335 46.50503798 86.55458805 40.3359375 86.56640625 C33.00371903 84.78852719 28.11388779 79.49471863 23.0625 74.25 C22.03672852 73.20392578 22.03672852 73.20392578 20.99023438 72.13671875 C19.31972274 70.43116142 17.65667608 68.71898116 16 67 C15.99945523 67.99244972 15.99891047 68.98489944 15.99834919 70.0074234 C15.98395066 94.16133693 15.9409211 118.3150703 15.86790943 142.4688797 C15.83326353 154.14952175 15.80790442 165.83004583 15.80444336 177.51074219 C15.80140293 187.69222479 15.78090161 197.87349729 15.73947543 208.05489874 C15.71815114 213.44540137 15.70554201 218.83560533 15.71384621 224.22615051 C15.72138978 229.3020918 15.70555065 234.37742807 15.67193985 239.45325851 C15.66371035 241.3139963 15.66395219 243.17479429 15.67340279 245.03552628 C15.75260958 262.34743507 15.75260958 262.34743507 10 269 C9.10087891 270.1446875 9.10087891 270.1446875 8.18359375 271.3125 C4.31496084 275.05131301 1.43184854 276.50340915 -4 276.75 C-9.72669937 276.38846595 -13.77846101 274.90543341 -18 271 C-20.375 267.9375 -20.375 267.9375 -22 265 C-22.35777212 264.44123798 -22.71554424 263.88247597 -23.08415794 263.30678177 C-24.41086221 259.96513876 -24.28769409 256.69614193 -24.2784729 253.1539917 C-24.2871615 251.96055141 -24.2871615 251.96055141 -24.29602563 250.74300122 C-24.31304416 248.07439476 -24.31590372 245.40596105 -24.31884766 242.73730469 C-24.32814455 240.82540461 -24.33831287 238.9135086 -24.34928894 237.00161743 C-24.37662987 231.8078137 -24.39175049 226.61403716 -24.40471697 221.42018032 C-24.42032959 215.99356906 -24.44712576 210.56701346 -24.4727478 205.14044189 C-24.5195687 194.8628823 -24.55629679 184.58531227 -24.58942068 174.3077004 C-24.62761867 162.60767494 -24.67703491 150.90770535 -24.72740483 139.20772696 C-24.83077393 115.13852602 -24.92001815 91.06928921 -25 67 C-25.4031543 67.4031543 -25.80630859 67.80630859 -26.22167969 68.22167969 C-35.546875 77.546875 -35.546875 77.546875 -37.36914062 79.36132812 C-38.68712899 80.6856302 -39.98040613 82.03449751 -41.265625 83.390625 C-44.92788411 86.78893751 -49.49488045 86.33793652 -54.21484375 86.26953125 C-59.34621143 85.77294728 -62.33732425 83.87380918 -65.72265625 80.05859375 C-69.53550537 75.16408531 -71.06630121 71.74882567 -71.328125 65.42578125 C-69.98129598 55.46886668 -63.63115738 49.9275729 -56.796875 43.203125 C-55.67362263 42.08158635 -54.5512616 40.95915437 -53.42974854 39.83587646 C-51.08377426 37.49155011 -48.72956381 35.15594094 -46.36865234 32.82666016 C-43.35466851 29.8523514 -40.35865337 26.86070277 -37.36820602 23.86275101 C-35.05420662 21.54567051 -32.73265009 19.23628639 -30.40860748 16.92928314 C-29.30160041 15.82926786 -28.19649763 14.72733251 -27.09340668 13.6233902 C-25.54580747 12.07760462 -23.98872248 10.54203473 -22.42871094 9.00878906 C-21.54729431 8.13579163 -20.66587769 7.26279419 -19.75775146 6.36334229 C-13.68909163 1.16261242 -8.05426987 -1.59407424 0 0 Z " fill="#CCC9DD" transform="translate(433,472)"/>
<path d="M0 0 C4.89576989 3.27415932 8.01656945 6.54691164 10.25 12.0625 C11.13653264 18.37048446 11.06822836 24.62527374 11.02294922 30.98461914 C11.0311271 32.90711708 11.04193359 34.82960536 11.05516052 36.7520752 C11.08353026 41.95199079 11.07526629 47.15127131 11.06029272 52.35121846 C11.05089791 57.79251627 11.07537706 63.23366065 11.09622192 68.6749115 C11.13053591 78.97009228 11.13450349 89.26505086 11.12749684 99.5602774 C11.12100046 111.28463514 11.14844321 123.00883717 11.17869925 134.73314869 C11.2401592 158.84294838 11.2591203 182.95263098 11.25 207.0625 C11.73355957 206.55275635 12.21711914 206.0430127 12.71533203 205.51782227 C14.92190775 203.20706326 17.14801261 200.91608653 19.375 198.625 C20.13554688 197.82255859 20.89609375 197.02011719 21.6796875 196.19335938 C22.80117188 195.04770508 22.80117188 195.04770508 23.9453125 193.87890625 C24.9664917 192.81845093 24.9664917 192.81845093 26.00830078 191.73657227 C28.76656073 189.67673906 30.85693144 189.39377508 34.25 189.0625 C35.13300781 188.9490625 36.01601563 188.835625 36.92578125 188.71875 C42.32536706 188.39877454 45.79230617 188.86285027 50.25 192.0625 C55.39362822 196.63563636 57.20743206 201.30025074 57.75 208.0625 C57.55916827 212.91916761 55.09092276 216.27460298 52.25 220.0625 C51.59 220.949375 50.93 221.83625 50.25 222.75 C44.41511318 229.49658788 44.41511318 229.49658788 41.0625 231.125 C38.67469435 232.36007189 38.41389103 233.66625377 37.25 236.0625 C34.88590726 238.61827594 32.50203949 240.86716939 29.75 243 C27.67100476 244.71517107 26.22235432 246.23403139 24.5625 248.3125 C23.4178125 249.67375 23.4178125 249.67375 22.25 251.0625 C21.59 251.0625 20.93 251.0625 20.25 251.0625 C20.023125 251.619375 19.79625 252.17625 19.5625 252.75 C16.84845869 257.53188231 12.47998281 260.67851375 8.25 264.0625 C7.0125 265.3 7.0125 265.3 5.75 266.5625 C1.01402608 271.29847392 -2.57647715 274.1438869 -9.375 274.5 C-21.22982815 274.15953648 -29.75760858 262.40843407 -37.5 254.5 C-38.71673795 253.26817853 -39.93418125 252.03705335 -41.15234375 250.80664062 C-43.38817577 248.54650277 -45.61985431 246.28243881 -47.84667969 244.01342773 C-50.46521557 241.34707877 -53.10358749 238.7012095 -55.75 236.0625 C-57.41666667 234.39583333 -59.08333333 232.72916667 -60.75 231.0625 C-61.68199219 230.18271484 -61.68199219 230.18271484 -62.6328125 229.28515625 C-68.77003733 223.3929537 -75.76693416 216.33405886 -76.125 207.4375 C-76.0548878 200.50640845 -73.08691379 196.39941379 -68.3125 191.625 C-65.27867025 189.77510381 -63.29356459 189.33508189 -59.75 189.0625 C-58.70972656 188.95035156 -58.70972656 188.95035156 -57.6484375 188.8359375 C-51.23878152 188.41743762 -47.6353074 190.02263227 -42.75 194.0625 C-40.44955562 196.25376641 -38.21572204 198.50819299 -35.984375 200.76953125 C-35.38351074 201.37462524 -34.78264648 201.97971924 -34.16357422 202.60314941 C-32.690236 204.08747176 -31.21982321 205.5746969 -29.75 207.0625 C-29.74853344 206.06397475 -29.74706688 205.0654495 -29.74555588 204.03666592 C-29.7089622 179.74124542 -29.64951429 155.44596278 -29.56609726 131.1506567 C-29.52628659 119.40162362 -29.49390436 107.65265771 -29.47900391 95.90356445 C-29.46599795 85.66314792 -29.43906017 75.42287908 -29.39538693 65.18254572 C-29.37274851 59.76025864 -29.35709076 54.33815388 -29.35811615 48.91581535 C-29.35886134 43.8112194 -29.3409668 38.70702684 -29.30883217 33.60253525 C-29.3003197 31.7300901 -29.29859237 29.85759977 -29.30419731 27.98514366 C-29.31083848 25.42537029 -29.29291458 22.86687994 -29.26898193 20.30723572 C-29.27674235 19.56889069 -29.28450277 18.83054566 -29.29249835 18.06982654 C-29.18929786 11.82060467 -27.16505829 7.66972422 -22.93359375 3.1015625 C-22.06927734 2.40160156 -22.06927734 2.40160156 -21.1875 1.6875 C-20.31931641 0.96433594 -20.31931641 0.96433594 -19.43359375 0.2265625 C-13.7851187 -3.67887965 -5.89333263 -2.90671152 0 0 Z " fill="#CCC9DD" transform="translate(570.75,473.9375)"/>
<path d="M0 0 C2.4958908 1.74656015 4.13931611 3.62531446 5.73046875 6.2109375 C5.73046875 7.2009375 5.73046875 8.1909375 5.73046875 9.2109375 C6.39046875 9.2109375 7.05046875 9.2109375 7.73046875 9.2109375 C8.26508721 16.33918362 8.32817698 21.66984583 4.21484375 27.6875 C2.73046875 29.2109375 2.73046875 29.2109375 0.62109375 30.234375 C-1.62564673 31.11635422 -1.62564673 31.11635422 -2.26953125 34.2109375 C-6.65500837 35.87741881 -11.66720489 35.72879039 -16.26953125 35.2109375 C-21.84966548 32.47351316 -25.64680579 28.22457049 -28.58203125 22.7734375 C-30.31168892 16.32653163 -29.31662204 10.08138164 -26.26953125 4.2109375 C-19.27476983 -3.88203525 -9.30772332 -5.23907779 0 0 Z " fill="#CBC8DC" transform="translate(572.26953125,408.7890625)"/>
<path d="M0 0 C0.66 0.33 1.32 0.66 2 1 C-5.00031805 8.04657774 -12.00596842 15.08780515 -19.01855278 22.12217712 C-22.27430784 25.38838704 -25.52816927 28.65643863 -28.77783203 31.92871094 C-31.91167505 35.08422174 -35.05032236 38.23487815 -38.19241714 41.38217163 C-39.39269972 42.5861609 -40.59121532 43.79191428 -41.78796005 44.99942017 C-43.4593579 46.68525231 -45.13682478 48.36480611 -46.81591797 50.04296875 C-47.3136673 50.54790863 -47.81141663 51.05284851 -48.32424927 51.5730896 C-51.77189568 55 -51.77189568 55 -54 55 C-52.44409805 51.27881208 -50.16154465 48.91390393 -47.32250977 46.07958984 C-46.84911163 45.60429337 -46.3757135 45.12899689 -45.88796997 44.63929749 C-44.3272873 43.07492059 -42.75953895 41.51784359 -41.19140625 39.9609375 C-40.10249473 38.87321864 -39.01395322 37.78512925 -37.92576599 36.69668579 C-35.64654371 34.41902603 -33.3640059 32.14476061 -31.07885742 29.87304688 C-28.15046683 26.96165577 -25.22871203 24.04371536 -22.3091898 21.12343407 C-20.06271094 18.87722717 -17.81363487 16.63363636 -15.56367302 14.39091873 C-14.48539457 13.3158211 -13.40771952 12.24011794 -12.33065987 11.16379929 C-10.82523119 9.6605398 -9.31655457 8.16061976 -7.80688477 6.66162109 C-6.52020653 5.38066055 -6.52020653 5.38066055 -5.20753479 4.07382202 C-3 2 -3 2 0 0 Z " fill="#B0AEC1" transform="translate(419,474)"/>
<path d="M0 0 C0.66 0.33 1.32 0.66 2 1 C-3.61 6.61 -9.22 12.22 -15 18 C-15.66 17.67 -16.32 17.34 -17 17 C-11.33333333 11.33333333 -5.66666667 5.66666667 0 0 Z " fill="#343946" transform="translate(422,307)"/>
<path d="M0 0 C0.66 0.33 1.32 0.66 2 1 C-0.97 3.97 -3.94 6.94 -7 10 C-7.33 9.34 -7.66 8.68 -8 8 C-3.375 2.25 -3.375 2.25 0 0 Z " fill="#ABA9BC" transform="translate(505,664)"/>
<path d="M0 0 C0.66 0.33 1.32 0.66 2 1 C-0.97 3.97 -3.94 6.94 -7 10 C-7.33 9.34 -7.66 8.68 -8 8 C-5.58443874 4.80800833 -3.31996462 2.25283313 0 0 Z " fill="#A6A6B8" transform="translate(553,473)"/>
</svg>
